<?xml version="1.0" standalone="no"?>
<!DOCTYPE svg PUBLIC "-//W3C//DTD SVG 20010904//EN"
 "http://www.w3.org/TR/2001/REC-SVG-20010904/DTD/svg10.dtd">
<svg version="1.0" xmlns="http://www.w3.org/2000/svg"
 width="640.000000pt" height="640.000000pt" viewBox="0 0 640.000000 640.000000"
 preserveAspectRatio="xMidYMid meet">

<g transform="translate(0.000000,640.000000) scale(0.100000,-0.100000)"
fill="#000000" stroke="none">
<path d="M3321 6049 c-404 -44 -793 -290 -1090 -689 -290 -390 -453 -958 -411
-1435 29 -338 134 -637 319 -911 194 -289 399 -463 746 -634 169 -83 317 -138
400 -147 41 -4 55 -1 76 16 33 25 44 65 29 102 -16 36 -102 82 -227 118 -243
70 -406 166 -585 346 -364 365 -549 880 -499 1390 51 523 266 961 635 1292
222 200 495 318 763 330 144 7 238 -5 376 -49 125 -39 217 -99 322 -209 354
-371 412 -908 154 -1434 -149 -304 -384 -540 -672 -675 -272 -128 -610 -125
-807 6 -78 52 -217 197 -270 282 -39 63 -53 76 -111 107 -37 19 -77 35 -89 35
-34 0 -80 -52 -80 -92 0 -69 172 -284 312 -391 95 -72 270 -168 375 -207 383
-138 809 -34 1180 290 385 335 617 890 573 1367 -23 252 -95 454 -228 643 -65
93 -203 231 -289 291 -97 67 -299 169 -399 203 -155 51 -345 72 -503 55z"/>
<path d="M2945 5011 c-11 -5 -52 -44 -90 -87 -38 -44 -114 -128 -168 -187
-108 -118 -133 -161 -117 -201 5 -15 56 -60 122 -109 295 -217 361 -251 409
-214 39 30 52 103 24 131 -9 8 -70 54 -135 101 -66 48 -120 89 -120 93 0 4 61
75 135 157 128 142 140 162 135 210 -3 28 -15 40 -75 74 -63 35 -92 43 -120
32z"/>
<path d="M3799 4951 c-32 -32 -39 -84 -16 -113 6 -8 66 -57 132 -108 66 -51
122 -95 124 -97 3 -2 -57 -66 -132 -141 -131 -133 -137 -140 -137 -180 0 -46
14 -61 102 -107 37 -19 62 -26 79 -22 34 9 386 365 394 400 5 18 2 35 -9 52
-22 33 -338 278 -407 315 -71 37 -93 38 -130 1z"/>
<path d="M1333 1752 l-33 -3 0 -295 0 -294 55 0 55 0 0 201 c0 119 4 198 9
195 5 -4 55 -94 111 -201 l102 -195 64 0 64 0 0 295 0 295 -55 0 -55 0 0 -175
c0 -96 -3 -175 -7 -175 -5 0 -49 78 -99 173 l-91 172 -44 5 c-24 3 -59 4 -76
2z"/>
<path d="M2047 1743 c-65 -22 -129 -81 -158 -145 -32 -73 -33 -211 -3 -279 52
-113 135 -162 274 -163 64 -1 103 5 158 23 39 13 72 26 72 30 0 3 2 66 3 139
l2 132 -132 0 -133 0 0 -55 0 -55 75 0 75 0 0 -45 c0 -40 -3 -45 -27 -52 -16
-4 -55 -7 -89 -7 -111 1 -176 68 -177 183 0 75 17 124 58 160 62 54 167 54
261 1 79 -44 84 -42 84 33 l0 64 -37 16 c-95 40 -220 49 -306 20z"/>
<path d="M920 1700 l0 -50 35 0 35 0 0 -195 0 -195 -35 0 -35 0 0 -50 0 -50
130 0 130 0 0 49 c0 49 -1 50 -32 53 l-33 3 -3 193 -2 192 35 0 35 0 0 50 0
50 -130 0 -130 0 0 -50z"/>
<path d="M2510 1455 l0 -295 205 0 205 0 0 55 0 54 -142 3 -143 3 0 75 0 75
140 1 140 0 3 57 3 57 -146 0 -145 0 0 50 0 50 145 0 145 0 0 55 0 55 -205 0
-205 0 0 -295z"/>
<path d="M3020 1455 l0 -295 60 0 60 0 2 200 3 201 105 -198 105 -198 63 -3
62 -3 1 271 c1 148 2 277 2 285 0 8 -1 20 -2 25 0 6 -26 10 -56 10 l-55 0 -2
-180 -3 -180 -95 180 -95 180 -77 0 -78 0 0 -295z"/>
<path d="M3610 1566 c0 -101 5 -207 10 -237 20 -105 87 -165 196 -176 105 -11
194 30 237 110 20 39 22 57 25 265 l4 222 -60 0 -61 0 -3 -215 -3 -215 -27
-27 c-23 -23 -36 -27 -82 -27 -103 0 -116 32 -116 297 l0 187 -60 0 -60 0 0
-184z"/>
<path d="M4180 1700 l0 -50 35 0 35 0 0 -195 0 -195 -35 0 -35 0 0 -50 0 -50
135 0 135 0 -1 49 c-2 50 -2 50 -38 53 l-36 3 -3 192 -2 192 37 3 c38 3 38 3
41 51 l3 47 -135 0 -136 0 0 -50z"/>
<path d="M4490 1695 l0 -55 95 0 95 0 0 -240 0 -240 60 0 60 0 0 240 0 240 99
0 100 0 3 29 c3 25 14 11 91 -114 l87 -144 0 -125 0 -126 60 0 60 0 0 127 0
127 92 145 c50 80 98 156 106 169 l14 22 -68 0 -69 0 -63 -105 c-35 -58 -67
-105 -70 -105 -4 0 -35 48 -70 105 l-64 105 -309 0 -309 0 0 -55z"/>
<path d="M1598 3 c881 -2 2323 -2 3205 0 881 1 160 2 -1603 2 -1763 0 -2484
-1 -1602 -2z"/>
</g>
</svg>
