<svg width="500" height="500" viewBox="0 0 500 500" fill="none" xmlns="http://www.w3.org/2000/svg">
<rect width="500" height="500" fill="white"/>
<ellipse cx="250" cy="196.394" rx="129" ry="128.394" fill="#153049"/>
<circle cx="250" cy="195.789" r="108.408" fill="white"/>
<path d="M341.451 168.535C364.465 296.324 214.873 320.549 178.535 261.803C173.933 256.153 165.259 248.551 169.451 255.141C173.643 261.731 163.42 255.883 160.366 249.69C158.044 244.982 159.885 236.265 160.366 232.732C160.396 238.978 161.038 242.171 164.606 246.662C166.123 248.849 170.804 250.516 178.535 244.845C187.513 238.259 194.887 220.014 206.394 200.028C215.6 184.039 224.362 183.272 227.592 184.887C244.549 188.279 230.62 208.507 250 218.197C255.988 219.993 265.527 211.134 273.936 203.325L274.225 203.056C282.704 193.972 287.778 183.208 302.084 168.535C316.015 154.248 320.386 156.958 330.549 152.789C338.063 149.706 343.671 149.962 345.084 150.972C344.277 150.972 338.615 152.789 341.451 168.535Z" fill="#28A9E2"/>
<path d="M337.63 173.38C332.301 171.442 323.701 172.573 320.067 173.38C316.433 170.352 337.63 164.296 337.63 163.69C337.63 163.084 335.208 158.845 333.997 157.028C333.028 155.575 340.86 155.211 344.898 155.211C343.889 158.643 341.87 166.234 341.87 169.141C341.87 172.048 339.043 173.178 337.63 173.38Z" fill="white"/>
<path d="M320.254 133.408C222.868 48.6193 143.866 146.936 156.584 209.921L157.944 215.775L159.761 222.437C159.761 218.561 166.369 207.496 168.993 204.065C162.695 223.929 166.369 229.703 168.993 230.107C181.59 219.448 191.402 174.389 219.261 165.91C247.12 157.431 235.007 205.882 244.697 198.614C254.388 191.346 284.454 132.3 326.31 141.887C327.521 141.887 323.887 136.572 320.254 133.408Z" fill="#173653"/>
<path d="M251.817 222.437C251.941 222.534 252.072 222.626 252.209 222.71C256.156 224.609 273.191 213.466 277.859 208.798C281.109 205.548 291.385 193.972 297.239 189.732C318.437 175.803 328.127 181.253 326.915 187.915C328.854 196.152 316.014 197 306.93 201.239C297.978 205.417 261.391 228.41 252.209 222.71C252.059 222.638 251.928 222.547 251.817 222.437Z" fill="white"/>
<path d="M235.98 265.358L239.546 260.944L228.066 251.849L239.546 242.754L235.98 238.341L221.716 249.643C221.382 249.907 221.112 250.243 220.926 250.625C220.741 251.007 220.645 251.426 220.645 251.849C220.645 252.273 220.741 252.692 220.926 253.074C221.112 253.456 221.382 253.791 221.716 254.056L235.98 265.358ZM262.368 238.341L258.802 242.754L270.282 251.849L258.802 260.944L262.368 265.358L276.632 254.056C276.967 253.791 277.236 253.456 277.422 253.074C277.607 252.692 277.703 252.273 277.703 251.849C277.703 251.426 277.607 251.007 277.422 250.625C277.236 250.243 276.967 249.907 276.632 249.643L262.368 238.341Z" fill="#363543"/>
<path d="M257.501 231.286L246.09 282.145L240.518 280.918L251.93 230.06L257.501 231.286Z" fill="#363543"/>
<path d="M151.352 375.576C147.992 375.576 145.048 374.84 142.52 373.368C140.024 371.896 138.056 369.864 136.616 367.272C135.208 364.648 134.504 361.624 134.504 358.2C134.504 354.776 135.208 351.768 136.616 349.176C138.056 346.552 140.024 344.504 142.52 343.032C145.048 341.56 147.992 340.824 151.352 340.824C154.68 340.824 157.608 341.56 160.136 343.032C162.664 344.504 164.632 346.552 166.04 349.176C167.448 351.768 168.152 354.776 168.152 358.2C168.152 361.624 167.448 364.648 166.04 367.272C164.632 369.864 162.664 371.896 160.136 373.368C157.608 374.84 154.68 375.576 151.352 375.576ZM151.352 370.056C154.552 370.056 157.096 369 158.984 366.888C160.904 364.776 161.864 361.88 161.864 358.2C161.864 354.52 160.904 351.624 158.984 349.512C157.096 347.4 154.552 346.344 151.352 346.344C148.152 346.344 145.592 347.4 143.672 349.512C141.752 351.624 140.792 354.52 140.792 358.2C140.792 361.88 141.752 364.776 143.672 366.888C145.592 369 148.152 370.056 151.352 370.056ZM173.433 385.56V351.192H178.905L179.577 354.6C180.345 353.544 181.353 352.616 182.601 351.816C183.881 351.016 185.529 350.616 187.545 350.616C189.785 350.616 191.785 351.16 193.545 352.248C195.305 353.336 196.697 354.824 197.721 356.712C198.745 358.6 199.257 360.744 199.257 363.144C199.257 365.544 198.745 367.688 197.721 369.576C196.697 371.432 195.305 372.904 193.545 373.992C191.785 375.048 189.785 375.576 187.545 375.576C185.753 375.576 184.185 375.24 182.841 374.568C181.497 373.896 180.409 372.952 179.577 371.736V385.56H173.433ZM186.249 370.2C188.201 370.2 189.817 369.544 191.097 368.232C192.377 366.92 193.017 365.224 193.017 363.144C193.017 361.064 192.377 359.352 191.097 358.008C189.817 356.664 188.201 355.992 186.249 355.992C184.265 355.992 182.633 356.664 181.353 358.008C180.105 359.32 179.481 361.016 179.481 363.096C179.481 365.176 180.105 366.888 181.353 368.232C182.633 369.544 184.265 370.2 186.249 370.2ZM216.313 375.576C213.913 375.576 211.785 375.064 209.929 374.04C208.073 373.016 206.617 371.576 205.561 369.72C204.505 367.864 203.977 365.72 203.977 363.288C203.977 360.824 204.489 358.632 205.513 356.712C206.569 354.792 208.009 353.304 209.833 352.248C211.689 351.16 213.865 350.616 216.361 350.616C218.697 350.616 220.761 351.128 222.553 352.152C224.345 353.176 225.737 354.584 226.729 356.376C227.753 358.136 228.265 360.104 228.265 362.28C228.265 362.632 228.249 363 228.217 363.384C228.217 363.768 228.201 364.168 228.169 364.584H210.073C210.201 366.44 210.841 367.896 211.993 368.952C213.177 370.008 214.601 370.536 216.265 370.536C217.513 370.536 218.553 370.264 219.385 369.72C220.249 369.144 220.889 368.408 221.305 367.512H227.545C227.097 369.016 226.345 370.392 225.289 371.64C224.265 372.856 222.985 373.816 221.449 374.52C219.945 375.224 218.233 375.576 216.313 375.576ZM216.361 355.608C214.857 355.608 213.529 356.04 212.377 356.904C211.225 357.736 210.489 359.016 210.169 360.744H222.025C221.929 359.176 221.353 357.928 220.297 357C219.241 356.072 217.929 355.608 216.361 355.608ZM233.433 375V351.192H238.857L239.337 355.224C240.073 353.816 241.129 352.696 242.505 351.864C243.913 351.032 245.561 350.616 247.449 350.616C250.393 350.616 252.681 351.544 254.312 353.4C255.944 355.256 256.76 357.976 256.76 361.56V375H250.617V362.136C250.617 360.088 250.201 358.52 249.369 357.432C248.537 356.344 247.241 355.8 245.481 355.8C243.753 355.8 242.329 356.408 241.209 357.624C240.121 358.84 239.577 360.536 239.577 362.712V375H233.433ZM262.78 375V341.4H268.924V370.2H283.804V375H262.78ZM297.281 375.576C295.233 375.576 293.553 375.256 292.241 374.616C290.929 373.944 289.953 373.064 289.313 371.976C288.673 370.888 288.353 369.688 288.353 368.376C288.353 366.168 289.217 364.376 290.945 363C292.673 361.624 295.265 360.936 298.721 360.936H304.769V360.36C304.769 358.728 304.305 357.528 303.377 356.76C302.449 355.992 301.297 355.608 299.921 355.608C298.673 355.608 297.585 355.912 296.657 356.52C295.729 357.096 295.153 357.96 294.929 359.112H288.929C289.089 357.384 289.665 355.88 290.657 354.6C291.681 353.32 292.993 352.344 294.593 351.672C296.193 350.968 297.985 350.616 299.969 350.616C303.361 350.616 306.033 351.464 307.985 353.16C309.937 354.856 310.913 357.256 310.913 360.36V375H305.681L305.105 371.16C304.401 372.44 303.409 373.496 302.129 374.328C300.881 375.16 299.265 375.576 297.281 375.576ZM298.673 370.776C300.433 370.776 301.793 370.2 302.753 369.048C303.745 367.896 304.369 366.472 304.625 364.776H299.393C297.761 364.776 296.593 365.08 295.889 365.688C295.185 366.264 294.833 366.984 294.833 367.848C294.833 368.776 295.185 369.496 295.889 370.008C296.593 370.52 297.521 370.776 298.673 370.776ZM316.776 375V340.44H322.92V360.84L331.368 351.192H338.664L328.92 362.04L340.248 375H332.568L322.92 363.048V375H316.776ZM353.657 375.576C351.257 375.576 349.129 375.064 347.273 374.04C345.417 373.016 343.961 371.576 342.905 369.72C341.849 367.864 341.321 365.72 341.321 363.288C341.321 360.824 341.833 358.632 342.857 356.712C343.913 354.792 345.353 353.304 347.177 352.248C349.033 351.16 351.209 350.616 353.705 350.616C356.041 350.616 358.105 351.128 359.897 352.152C361.689 353.176 363.081 354.584 364.073 356.376C365.097 358.136 365.609 360.104 365.609 362.28C365.609 362.632 365.593 363 365.561 363.384C365.561 363.768 365.545 364.168 365.513 364.584H347.417C347.545 366.44 348.185 367.896 349.337 368.952C350.521 370.008 351.945 370.536 353.609 370.536C354.857 370.536 355.897 370.264 356.729 369.72C357.593 369.144 358.233 368.408 358.649 367.512H364.889C364.441 369.016 363.689 370.392 362.633 371.64C361.609 372.856 360.329 373.816 358.793 374.52C357.289 375.224 355.577 375.576 353.657 375.576ZM353.705 355.608C352.201 355.608 350.873 356.04 349.721 356.904C348.569 357.736 347.833 359.016 347.513 360.744H359.369C359.273 359.176 358.697 357.928 357.641 357C356.585 356.072 355.273 355.608 353.705 355.608Z" fill="#333842"/>
<path d="M86.6494 429V402.4H103.825V406.314H91.5134V413.762H101.469V417.6H91.5134V429H86.6494ZM115.507 429.456C113.683 429.456 112.036 429.038 110.567 428.202C109.123 427.366 107.97 426.213 107.109 424.744C106.273 423.249 105.855 421.527 105.855 419.576C105.855 417.625 106.286 415.915 107.147 414.446C108.008 412.951 109.161 411.786 110.605 410.95C112.074 410.114 113.721 409.696 115.545 409.696C117.344 409.696 118.965 410.114 120.409 410.95C121.878 411.786 123.031 412.951 123.867 414.446C124.728 415.915 125.159 417.625 125.159 419.576C125.159 421.527 124.728 423.249 123.867 424.744C123.031 426.213 121.878 427.366 120.409 428.202C118.94 429.038 117.306 429.456 115.507 429.456ZM115.507 425.238C116.774 425.238 117.876 424.769 118.813 423.832C119.75 422.869 120.219 421.451 120.219 419.576C120.219 417.701 119.75 416.295 118.813 415.358C117.876 414.395 116.786 413.914 115.545 413.914C114.253 413.914 113.138 414.395 112.201 415.358C111.289 416.295 110.833 417.701 110.833 419.576C110.833 421.451 111.289 422.869 112.201 423.832C113.138 424.769 114.24 425.238 115.507 425.238ZM129.508 429V410.152H133.84L134.296 413.686C134.98 412.47 135.905 411.507 137.07 410.798C138.261 410.063 139.654 409.696 141.25 409.696V414.826H139.882C138.818 414.826 137.868 414.991 137.032 415.32C136.196 415.649 135.537 416.219 135.056 417.03C134.6 417.841 134.372 418.968 134.372 420.412V429H129.508ZM160.127 429.456C158.506 429.456 157.176 429.203 156.137 428.696C155.099 428.164 154.326 427.467 153.819 426.606C153.313 425.745 153.059 424.795 153.059 423.756C153.059 422.008 153.743 420.589 155.111 419.5C156.479 418.411 158.531 417.866 161.267 417.866H166.055V417.41C166.055 416.118 165.688 415.168 164.953 414.56C164.219 413.952 163.307 413.648 162.217 413.648C161.229 413.648 160.368 413.889 159.633 414.37C158.899 414.826 158.443 415.51 158.265 416.422H153.515C153.642 415.054 154.098 413.863 154.883 412.85C155.694 411.837 156.733 411.064 157.999 410.532C159.266 409.975 160.685 409.696 162.255 409.696C164.941 409.696 167.056 410.367 168.601 411.71C170.147 413.053 170.919 414.953 170.919 417.41V429H166.777L166.321 425.96C165.764 426.973 164.979 427.809 163.965 428.468C162.977 429.127 161.698 429.456 160.127 429.456ZM161.229 425.656C162.623 425.656 163.699 425.2 164.459 424.288C165.245 423.376 165.739 422.249 165.941 420.906H161.799C160.507 420.906 159.583 421.147 159.025 421.628C158.468 422.084 158.189 422.654 158.189 423.338C158.189 424.073 158.468 424.643 159.025 425.048C159.583 425.453 160.317 425.656 161.229 425.656ZM184.73 429V402.4H195.408C198.169 402.4 200.272 403.046 201.716 404.338C203.185 405.605 203.92 407.239 203.92 409.24C203.92 410.912 203.464 412.255 202.552 413.268C201.665 414.256 200.576 414.927 199.284 415.282C200.804 415.586 202.058 416.346 203.046 417.562C204.034 418.753 204.528 420.146 204.528 421.742C204.528 423.845 203.768 425.58 202.248 426.948C200.728 428.316 198.574 429 195.788 429H184.73ZM189.594 413.572H194.686C196.054 413.572 197.105 413.255 197.84 412.622C198.574 411.989 198.942 411.089 198.942 409.924C198.942 408.809 198.574 407.935 197.84 407.302C197.13 406.643 196.054 406.314 194.61 406.314H189.594V413.572ZM189.594 425.048H195.028C196.472 425.048 197.586 424.719 198.372 424.06C199.182 423.376 199.588 422.426 199.588 421.21C199.588 419.969 199.17 418.993 198.334 418.284C197.498 417.575 196.37 417.22 194.952 417.22H189.594V425.048ZM217.746 429.456C215.846 429.456 214.161 429.051 212.692 428.24C211.223 427.429 210.07 426.289 209.234 424.82C208.398 423.351 207.98 421.653 207.98 419.728C207.98 417.777 208.385 416.042 209.196 414.522C210.032 413.002 211.172 411.824 212.616 410.988C214.085 410.127 215.808 409.696 217.784 409.696C219.633 409.696 221.267 410.101 222.686 410.912C224.105 411.723 225.207 412.837 225.992 414.256C226.803 415.649 227.208 417.207 227.208 418.93C227.208 419.209 227.195 419.5 227.17 419.804C227.17 420.108 227.157 420.425 227.132 420.754H212.806C212.907 422.223 213.414 423.376 214.326 424.212C215.263 425.048 216.391 425.466 217.708 425.466C218.696 425.466 219.519 425.251 220.178 424.82C220.862 424.364 221.369 423.781 221.698 423.072H226.638C226.283 424.263 225.688 425.352 224.852 426.34C224.041 427.303 223.028 428.063 221.812 428.62C220.621 429.177 219.266 429.456 217.746 429.456ZM217.784 413.648C216.593 413.648 215.542 413.99 214.63 414.674C213.718 415.333 213.135 416.346 212.882 417.714H222.268C222.192 416.473 221.736 415.485 220.9 414.75C220.064 414.015 219.025 413.648 217.784 413.648ZM239.363 429C237.387 429 235.804 428.519 234.613 427.556C233.422 426.593 232.827 424.883 232.827 422.426V414.218H229.597V410.152H232.827L233.397 405.098H237.691V410.152H242.783V414.218H237.691V422.464C237.691 423.376 237.881 424.009 238.261 424.364C238.666 424.693 239.35 424.858 240.313 424.858H242.669V429H239.363ZM255.357 429C253.381 429 251.798 428.519 250.607 427.556C249.417 426.593 248.821 424.883 248.821 422.426V414.218H245.591V410.152H248.821L249.391 405.098H253.685V410.152H258.777V414.218H253.685V422.464C253.685 423.376 253.875 424.009 254.255 424.364C254.661 424.693 255.345 424.858 256.307 424.858H258.663V429H255.357ZM271.629 429.456C269.729 429.456 268.044 429.051 266.575 428.24C265.106 427.429 263.953 426.289 263.117 424.82C262.281 423.351 261.863 421.653 261.863 419.728C261.863 417.777 262.268 416.042 263.079 414.522C263.915 413.002 265.055 411.824 266.499 410.988C267.968 410.127 269.691 409.696 271.667 409.696C273.516 409.696 275.15 410.101 276.569 410.912C277.988 411.723 279.09 412.837 279.875 414.256C280.686 415.649 281.091 417.207 281.091 418.93C281.091 419.209 281.078 419.5 281.053 419.804C281.053 420.108 281.04 420.425 281.015 420.754H266.689C266.79 422.223 267.297 423.376 268.209 424.212C269.146 425.048 270.274 425.466 271.591 425.466C272.579 425.466 273.402 425.251 274.061 424.82C274.745 424.364 275.252 423.781 275.581 423.072H280.521C280.166 424.263 279.571 425.352 278.735 426.34C277.924 427.303 276.911 428.063 275.695 428.62C274.504 429.177 273.149 429.456 271.629 429.456ZM271.667 413.648C270.476 413.648 269.425 413.99 268.513 414.674C267.601 415.333 267.018 416.346 266.765 417.714H276.151C276.075 416.473 275.619 415.485 274.783 414.75C273.947 414.015 272.908 413.648 271.667 413.648ZM285.182 429V410.152H289.514L289.97 413.686C290.654 412.47 291.579 411.507 292.744 410.798C293.935 410.063 295.328 409.696 296.924 409.696V414.826H295.556C294.492 414.826 293.542 414.991 292.706 415.32C291.87 415.649 291.211 416.219 290.73 417.03C290.274 417.841 290.046 418.968 290.046 420.412V429H285.182ZM314.813 429L307.783 402.4H312.989L317.777 423.566L323.401 402.4H328.759L334.231 423.566L339.019 402.4H344.263L337.043 429H331.267L325.985 409.278L320.551 429H314.813ZM354.714 429.456C352.89 429.456 351.244 429.038 349.774 428.202C348.33 427.366 347.178 426.213 346.316 424.744C345.48 423.249 345.062 421.527 345.062 419.576C345.062 417.625 345.493 415.915 346.354 414.446C347.216 412.951 348.368 411.786 349.812 410.95C351.282 410.114 352.928 409.696 354.752 409.696C356.551 409.696 358.172 410.114 359.616 410.95C361.086 411.786 362.238 412.951 363.074 414.446C363.936 415.915 364.366 417.625 364.366 419.576C364.366 421.527 363.936 423.249 363.074 424.744C362.238 426.213 361.086 427.366 359.616 428.202C358.147 429.038 356.513 429.456 354.714 429.456ZM354.714 425.238C355.981 425.238 357.083 424.769 358.02 423.832C358.958 422.869 359.426 421.451 359.426 419.576C359.426 417.701 358.958 416.295 358.02 415.358C357.083 414.395 355.994 413.914 354.752 413.914C353.46 413.914 352.346 414.395 351.408 415.358C350.496 416.295 350.04 417.701 350.04 419.576C350.04 421.451 350.496 422.869 351.408 423.832C352.346 424.769 353.448 425.238 354.714 425.238ZM368.715 429V410.152H373.047L373.503 413.686C374.187 412.47 375.112 411.507 376.277 410.798C377.468 410.063 378.861 409.696 380.457 409.696V414.826H379.089C378.025 414.826 377.075 414.991 376.239 415.32C375.403 415.649 374.744 416.219 374.263 417.03C373.807 417.841 373.579 418.968 373.579 420.412V429H368.715ZM383.782 429V401.64H388.646V429H383.782ZM402.28 429.456C400.506 429.456 398.923 429.025 397.53 428.164C396.136 427.303 395.034 426.125 394.224 424.63C393.413 423.135 393.008 421.438 393.008 419.538C393.008 417.638 393.413 415.953 394.224 414.484C395.034 412.989 396.136 411.824 397.53 410.988C398.923 410.127 400.506 409.696 402.28 409.696C403.698 409.696 404.94 409.962 406.004 410.494C407.068 411.026 407.929 411.773 408.588 412.736V401.64H413.452V429H409.12L408.588 426.302C407.98 427.138 407.169 427.873 406.156 428.506C405.168 429.139 403.876 429.456 402.28 429.456ZM403.306 425.2C404.876 425.2 406.156 424.681 407.144 423.642C408.157 422.578 408.664 421.223 408.664 419.576C408.664 417.929 408.157 416.587 407.144 415.548C406.156 414.484 404.876 413.952 403.306 413.952C401.76 413.952 400.481 414.471 399.468 415.51C398.454 416.549 397.948 417.891 397.948 419.538C397.948 421.185 398.454 422.54 399.468 423.604C400.481 424.668 401.76 425.2 403.306 425.2Z" fill="#16A3D5"/>
</svg>
